<svg xmlns="http://www.w3.org/2000/svg" width="47" height="40" fill="none"><path fill="#252F3E" d="M13.77 16.352c0 .548.06.993.163 1.32.119.326.267.682.475 1.067a.646.646 0 0 1 .104.341c0 .149-.09.297-.282.446l-.934.622a.71.71 0 0 1-.386.134c-.148 0-.297-.074-.445-.208a4.586 4.586 0 0 1-.534-.697 11.488 11.488 0 0 1-.46-.875c-1.156 1.365-2.61 2.047-4.36 2.047-1.246 0-2.24-.356-2.966-1.068-.727-.712-1.098-1.661-1.098-2.848 0-1.26.445-2.284 1.35-3.055.904-.771 2.106-1.157 3.633-1.157.505 0 1.024.045 1.573.119.548.074 1.112.193 1.705.326v-1.082c0-1.128-.237-1.914-.697-2.373-.475-.46-1.275-.683-2.417-.683-.52 0-1.053.06-1.602.193-.549.134-1.083.297-1.602.504a4.257 4.257 0 0 1-.52.193.91.91 0 0 1-.236.045c-.208 0-.312-.149-.312-.46v-.727c0-.237.03-.415.104-.519.074-.104.208-.208.415-.311.52-.267 1.142-.49 1.869-.668a8.992 8.992 0 0 1 2.314-.282c1.765 0 3.055.4 3.885 1.202.816.8 1.232 2.017 1.232 3.648v4.806h.03ZM7.75 18.606c.49 0 .993-.089 1.527-.267a3.305 3.305 0 0 0 1.41-.95c.236-.281.415-.592.504-.948.088-.356.148-.786.148-1.29v-.624c-.43-.103-.89-.192-1.365-.252a11.18 11.18 0 0 0-1.394-.089c-.994 0-1.72.193-2.21.594-.49.4-.726.963-.726 1.705 0 .697.178 1.216.548 1.572.356.371.875.549 1.558.549Zm11.91 1.602c-.268 0-.446-.045-.564-.149-.12-.089-.223-.296-.312-.578L15.298 8.016c-.09-.296-.134-.489-.134-.593 0-.237.119-.37.356-.37h1.454c.282 0 .474.044.578.148.119.089.208.296.297.578l2.491 9.818 2.314-9.818c.074-.297.163-.49.282-.578.119-.09.326-.149.593-.149h1.187c.281 0 .474.045.593.149.118.089.222.296.282.578l2.343 9.937L30.5 7.78c.089-.297.193-.49.297-.578.118-.09.31-.149.578-.149h1.38c.236 0 .37.119.37.371 0 .074-.015.148-.03.237a2.11 2.11 0 0 1-.103.371l-3.575 11.465c-.089.296-.193.49-.311.578-.119.09-.312.149-.564.149h-1.275c-.282 0-.475-.045-.594-.149-.118-.104-.222-.296-.281-.593l-2.3-9.566-2.283 9.551c-.075.297-.163.49-.282.593-.119.104-.326.149-.593.149h-1.276Zm19.057.4a9.813 9.813 0 0 1-2.284-.267c-.741-.178-1.32-.37-1.705-.593-.237-.134-.4-.282-.46-.415a1.047 1.047 0 0 1-.089-.416v-.756c0-.312.119-.46.341-.46.09 0 .178.015.267.045.09.03.223.089.37.148a8.06 8.06 0 0 0 1.632.52 8.904 8.904 0 0 0 1.765.177c.935 0 1.661-.163 2.166-.49.504-.326.77-.8.77-1.408 0-.416-.133-.757-.4-1.039-.267-.281-.77-.533-1.498-.77l-2.15-.668c-1.083-.341-1.884-.845-2.373-1.513-.49-.652-.742-1.38-.742-2.15 0-.623.134-1.172.4-1.647.268-.474.624-.89 1.069-1.216.445-.341.949-.593 1.542-.771a6.463 6.463 0 0 1 1.869-.252c.326 0 .667.015.993.06.342.044.653.103.965.162.296.074.578.149.845.238s.474.177.623.266c.208.12.356.238.445.371.089.119.133.282.133.49v.697c0 .311-.118.474-.34.474-.12 0-.312-.059-.564-.178-.846-.385-1.795-.578-2.848-.578-.845 0-1.513.133-1.973.415-.46.282-.697.712-.697 1.32 0 .415.149.771.445 1.053.297.282.846.564 1.632.816l2.106.667c1.068.341 1.839.816 2.299 1.424.46.608.682 1.305.682 2.077 0 .637-.134 1.216-.386 1.72a3.99 3.99 0 0 1-1.083 1.305c-.46.37-1.008.638-1.646.83a7.053 7.053 0 0 1-2.12.312Z"/><path fill="#F90" fill-rule="evenodd" d="M41.52 27.816c-4.88 3.604-11.97 5.517-18.065 5.517-8.543 0-16.24-3.159-22.054-8.409-.46-.415-.045-.979.504-.652 6.289 3.648 14.045 5.858 22.07 5.858 5.412 0 11.36-1.127 16.833-3.441.815-.37 1.512.534.712 1.127Z" clip-rule="evenodd"/><path fill="#F90" fill-rule="evenodd" d="M43.551 25.503c-.623-.801-4.123-.386-5.71-.193-.474.059-.548-.356-.118-.668 2.788-1.957 7.37-1.394 7.905-.741.534.667-.149 5.25-2.759 7.445-.4.341-.786.163-.608-.282.593-1.468 1.913-4.775 1.29-5.561Z" clip-rule="evenodd"/></svg>